<svg width="23" height="19" viewBox="0 0 23 19" fill="none" xmlns="http://www.w3.org/2000/svg">
<path fill-rule="evenodd" clip-rule="evenodd" d="M0 9C1.77626 4.90267 6.16043 2 11.2941 2C16.4278 2 20.812 4.90267 22.5882 9C20.812 13.0973 16.4278 16 11.2941 16C6.16043 16 1.77626 13.0973 0 9ZM11.2942 3.86719C15.1856 3.86719 18.6559 5.85519 20.3501 9.00052C18.6559 12.1459 15.1856 14.1339 11.2942 14.1339C7.4029 14.1339 3.93252 12.1459 2.2384 9.00052C3.93252 5.85519 7.4029 3.86719 11.2942 3.86719ZM6.67383 9.00029C6.67383 6.68563 8.74784 4.80029 11.2941 4.80029C13.8405 4.80029 15.9145 6.68563 15.9145 9.00029C15.9145 11.315 13.8405 13.2003 11.2941 13.2003C8.74784 13.2003 6.67383 11.315 6.67383 9.00029ZM13.861 8.99984C13.861 7.71184 12.711 6.6665 11.2941 6.6665C9.87724 6.6665 8.72729 7.71184 8.72729 8.99984C8.72729 10.2878 9.87724 11.3332 11.2941 11.3332C12.711 11.3332 13.861 10.2878 13.861 8.99984Z" fill="#999999"/>
<line x1="3" y1="17.2635" x2="19.2635" y2="1.00007" stroke="#999999" stroke-width="2" stroke-linecap="round"/>
<mask id="mask0_12176_27866" style="mask-type:luminance" maskUnits="userSpaceOnUse" x="0" y="2" width="23" height="14">
<path fill-rule="evenodd" clip-rule="evenodd" d="M0 9C1.77626 4.90267 6.16043 2 11.2941 2C16.4278 2 20.812 4.90267 22.5882 9C20.812 13.0973 16.4278 16 11.2941 16C6.16043 16 1.77626 13.0973 0 9ZM11.2942 3.86719C15.1856 3.86719 18.6559 5.85519 20.3501 9.00052C18.6559 12.1459 15.1856 14.1339 11.2942 14.1339C7.4029 14.1339 3.93252 12.1459 2.2384 9.00052C3.93252 5.85519 7.4029 3.86719 11.2942 3.86719ZM6.67383 9.00029C6.67383 6.68563 8.74784 4.80029 11.2941 4.80029C13.8405 4.80029 15.9145 6.68563 15.9145 9.00029C15.9145 11.315 13.8405 13.2003 11.2941 13.2003C8.74784 13.2003 6.67383 11.315 6.67383 9.00029ZM13.861 8.99984C13.861 7.71184 12.711 6.6665 11.2941 6.6665C9.87724 6.6665 8.72729 7.71184 8.72729 8.99984C8.72729 10.2878 9.87724 11.3332 11.2941 11.3332C12.711 11.3332 13.861 10.2878 13.861 8.99984Z" fill="white"/>
</mask>
<g mask="url(#mask0_12176_27866)">
</g>
</svg>
