<svg width="24" height="15" viewBox="0 0 24 15" fill="none" xmlns="http://www.w3.org/2000/svg">
<path fill-rule="evenodd" clip-rule="evenodd" d="M0 7.19339C1.84489 2.98286 6.39846 0 11.7305 0C17.0626 0 21.6161 2.98286 23.461 7.19339C21.6161 11.4039 17.0626 14.3868 11.7305 14.3868C6.39846 14.3868 1.84489 11.4039 0 7.19339ZM11.7305 1.91824C15.7722 1.91824 19.3767 3.96116 21.1363 7.19339C19.3767 10.4256 15.7722 12.4685 11.7305 12.4685C7.68884 12.4685 4.08437 10.4256 2.3248 7.19339C4.08437 3.96116 7.68884 1.91824 11.7305 1.91824ZM6.93166 7.19339C6.93166 4.81478 9.08581 2.87736 11.7305 2.87736C14.3752 2.87736 16.5293 4.81478 16.5293 7.19339C16.5293 9.572 14.3752 11.5094 11.7305 11.5094C9.08581 11.5094 6.93166 9.572 6.93166 7.19339ZM14.3966 7.19339C14.3966 5.86981 13.2022 4.79559 11.7305 4.79559C10.2589 4.79559 9.0645 5.86981 9.0645 7.19339C9.0645 8.51697 10.2589 9.59119 11.7305 9.59119C13.2022 9.59119 14.3966 8.51697 14.3966 7.19339Z" fill="#999999"/>
<mask id="mask0_1243_647" style="mask-type:alpha" maskUnits="userSpaceOnUse" x="0" y="0" width="24" height="15">
<path fill-rule="evenodd" clip-rule="evenodd" d="M0 7.19339C1.84489 2.98286 6.39846 0 11.7305 0C17.0626 0 21.6161 2.98286 23.461 7.19339C21.6161 11.4039 17.0626 14.3868 11.7305 14.3868C6.39846 14.3868 1.84489 11.4039 0 7.19339ZM11.7305 1.91824C15.7722 1.91824 19.3767 3.96116 21.1363 7.19339C19.3767 10.4256 15.7722 12.4685 11.7305 12.4685C7.68884 12.4685 4.08437 10.4256 2.3248 7.19339C4.08437 3.96116 7.68884 1.91824 11.7305 1.91824ZM6.93166 7.19339C6.93166 4.81478 9.08581 2.87736 11.7305 2.87736C14.3752 2.87736 16.5293 4.81478 16.5293 7.19339C16.5293 9.572 14.3752 11.5094 11.7305 11.5094C9.08581 11.5094 6.93166 9.572 6.93166 7.19339ZM14.3966 7.19339C14.3966 5.86981 13.2022 4.79559 11.7305 4.79559C10.2589 4.79559 9.0645 5.86981 9.0645 7.19339C9.0645 8.51697 10.2589 9.59119 11.7305 9.59119C13.2022 9.59119 14.3966 8.51697 14.3966 7.19339Z" fill="white"/>
</mask>
<g mask="url(#mask0_1243_647)">
</g>
</svg>
